# xmcd
#
# Track frame offsets:
#	150
#	17788
#	30791
#	47617
#	61347
#	82255
#	100958
#	118982
#	135113
#	154454
#	168989
#	184757
#	202957
#	220153
#	242647
#	258586
#	270926
#	284086
#
# Disc length: 4011 seconds
#
# Revision: 0
# Processed by: cddbd v1.5.2PL0 Copyright (c) Steve Scherf et al.
# Submitted via: EasyCDDAExtractor 16.0.6.1
#
DISCID=fd0fa912
DTITLE=Kari Tapio - Olen suomalainen Cd 8
DYEAR=1900
DGENRE=
TTITLE0=Ei ihme jos janottaa
TTITLE1=Bora bora
TTITLE2=Oot kultasein
TTITLE3=Tahitin taivas
TTITLE4=Taikaa vain
TTITLE5=Kapeeta vakoo leveetä tietä
TTITLE6=Aikaan täysikuun
TTITLE7=Tuuli kääntyä voi
TTITLE8=Pelkkää huumaa
TTITLE9=Nainen
TTITLE10=Kortit nään
TTITLE11=Teitä kumpaakin rakastan
TTITLE12=La cumparsita
TTITLE13=Missä nyt meet
TTITLE14=Takamaan tyttö
TTITLE15=Yksinäisyys
TTITLE16=Etkö uskalla mua rakastaa
TTITLE17=Niin hyvät ole laulut ennenvanhaa
EXTD=
EXTT0=
EXTT1=
EXTT2=
EXTT3=
EXTT4=
EXTT5=
EXTT6=
EXTT7=
EXTT8=
EXTT9=
EXTT10=
EXTT11=
EXTT12=
EXTT13=
EXTT14=
EXTT15=
EXTT16=
EXTT17=
PLAYORDER=
